<?xml version="1.0" encoding="UTF-8"?>
<svg id="Layer_1" xmlns="http://www.w3.org/2000/svg" viewBox="0 0 474.6 414.07">
  <defs>
    <style>
      .cls-1 {
        fill: #00390d;
      }
    </style>
  </defs>
  <path class="cls-1" d="M338.9,35.06c7.3,7.73,15.02,14.45,20.96,22.49,13.62,18.43,23.15,38.81,24.41,62.17,2.18,40.5-19.93,70.16-59.4,79.73-16.12,3.91-32.29,5.14-47.52-3.26-3.84-2.11-7-5.57-10.15-8.74-.68-.68.07-2.78.16-4.22,1.29.25,2.93.08,3.83.82,22.92,18.87,53.86,17.23,74.45-4.37,16.29-17.08,23.63-38.08,25.82-61.23,3.03-32.09-9.85-56.89-34.55-76.39-.71-.56-1.44-1.1-2.19-1.6-.28-.19-.65-.24-1.14-.41-13.55,12.24-24.16,26.97-32.13,43.21-13.92,28.37-27.01,57.16-39.92,86.01-19.82,44.26-40.45,88.05-69.68,127.11-6.31,8.44-13.24,16.41-20.43,24.25-1.38-5.39-1.21-9.8,2.08-14.41,17.19-24.18,28.54-51.43,40.38-78.4,17.14-39.05,33.73-78.36,56.05-114.89,16.73-27.39,35.58-53.15,59.66-77.08-10.06-4.52-18.98-9.71-28.59-12.64-42.85-13.1-85.71-12.97-127.5,3.92-31.07,12.56-52.54,34.6-60.11,68.34-.59,2.62-.81,5.33-1.31,8.79h157.5c-2.08,5.11-3.56,7.89-9.58,6.52-6.95-1.57-14.35-1.38-21.57-1.47-15.01-.19-30.03-.14-45.04-.03-16.69.12-24.19,6.68-26.26,23.24-.8,6.44-1.15,12.98-1.17,19.48-.11,33.47-.06,66.93-.05,100.4,0,1.26.13,2.51.25,4.58h28.84c.16.72.32,1.43.48,2.15-1.79.62-3.56,1.73-5.37,1.77-7.76.2-15.52.08-23.43.08-.32,1.17-.74,2.01-.74,2.84.12,38.53.2,77.05.54,115.58.04,4.81,1.05,9.72,2.3,14.4,2.8,10.43,8.91,15.2,19.77,16.3,1.96.2,3.87.9,5.81,1.37-.09.67-.18,1.33-.27,2-1.48.19-2.97.54-4.45.54-24.42.03-48.84.03-73.26.02-.9,0-1.87.15-2.69-.12-.71-.23-1.24-.97-1.86-1.48.62-.7,1.11-1.62,1.88-2.03.74-.39,1.77-.24,2.67-.32,13.72-1.16,21.05-7.89,22.58-21.76.95-8.6,1.24-17.31,1.25-25.98.05-72.72.06-145.44-.22-218.16-.03-7.29-1.14-14.86-3.37-21.78-3.33-10.34-12.95-15.15-24.66-13.51-.91,21.42,5.49,39.98,20.83,55.39,1.92,1.93,2.68,5.02,3.09,8.08-10.8-6.48-18.03-15.74-22.79-26.84-14.83-34.65-5.09-75.63,23.82-101.96,19.66-17.9,43.22-27.37,68.98-31.65,31.97-5.31,63.83-4.69,94.88,5.46,9.87,3.23,19.16,8.32,28.53,12.94,3,1.48,4.69,1.62,7.43-.73C362.56,7.5,392.22-3.6,426.34,1.04c21.66,2.94,37.22,15.76,47.92,34.52.75,1.31,0,3.47-.04,5.24-1.54-.81-3.79-1.2-4.53-2.48-16.87-29-44.31-37.14-75.47-31.13-21.17,4.09-39.4,13.71-55.32,27.86Z"/>
  <path class="cls-1" d="M136.69,345.43c-1.11,2.03-1.71,5.05-3.42,5.93-30.21,15.66-60.99,17.27-91.42,1.3-23.38-12.27-36.34-33.05-40.33-58.57-5.85-37.41,4.94-69.4,36.43-91.97,22.58-16.19,48.49-19.65,75.56-14.65,3.31.61,6.54,2.1,9.53,3.69,1.22.64,1.72,2.65,2.54,4.03-1.58.3-3.54,1.35-4.68.77-9.57-4.81-19.8-5.54-30.16-5.03-33.26,1.63-59.73,15.09-75.53,45.44-19.36,37.19-9.86,86.23,24.36,108.5,23.06,15.01,48.16,16.28,73.96,8.93,7.55-2.15,14.64-5.89,21.94-8.9.41.18.81.35,1.22.53Z"/>
  <path class="cls-1" d="M276.97,313.8c-.84-37.06-18.78-54.93-55.31-52.74-.05-.64-.1-1.28-.15-1.92,1.85-.68,3.69-1.93,5.54-1.95,10.63-.11,20.97-1.4,30.13-7.25,14.25-9.1,18.25-23.45,19.49-39.1.1-1.26.1-2.53.22-3.78.03-.31.37-.59.58-.88,2.29,2.92,2.59,101.49-.5,107.62Z"/>
  <path class="cls-1" d="M332.44,176.43c-11.02-21.65-24.03-41.63-45.08-55.26,2.41-5.18,4.64-10.06,6.94-14.9.29-.62.91-1.53,1.39-1.54,6.29-.15,12.58-.22,18.87-.09.58.01,1.4,1.51,1.64,2.43,6.03,22.73,12.01,45.47,17.99,68.21l-1.76,1.14Z"/>
  <path class="cls-1" d="M170.7,184.86v-4.42c5.82-.48,11.41-.6,16.88-1.44,23.36-3.56,37.76-17.37,44.65-39.58.27-.86.26-1.95.79-2.56,1.12-1.26,2.52-2.27,3.81-3.39.45,1.69,1.62,3.55,1.26,5.04-8,32.76-34.97,48.82-66.2,46.93-.32-.02-.63-.3-1.2-.59Z"/>
</svg>